<svg width="160" height="83" viewBox="0 0 160 83" fill="none" xmlns="http://www.w3.org/2000/svg">
<path d="M48.679 26.1466L45.0438 20L41.4173 26.1466L45.0438 32.4149L48.679 26.1466Z" fill="white" fill-opacity="0.1"/>
<path d="M24.9054 54.5322L40.1296 28.3809L51.0704 47.1163H44.8774L40.1384 38.9005L34.0855 49.2463H35.2067L32.1058 54.5322H24.9054Z" fill="white" fill-opacity="0.1"/>
<path d="M49.9317 28.3809L46.3227 34.597L49.3973 39.8482L49.9492 38.9614L55.932 49.2723H46.4979L43.4583 54.5148H65.1559L49.9317 28.3809Z" fill="white" fill-opacity="0.1"/>
<path d="M43.7299 49.5592L40.6815 44.3081L29.7933 63H60.2856L56.6153 56.7404H50.5186L51.0704 57.7141H38.9996L43.7299 49.5592Z" fill="white" fill-opacity="0.1"/>
<path d="M66.3823 56.7404H59.1994L62.7645 62.9565H70L66.3823 56.7404Z" fill="white" fill-opacity="0.1"/>
<path d="M30.8181 56.7404H23.5827L20 62.9913H27.2092L30.8181 56.7404Z" fill="white" fill-opacity="0.1"/>
<path d="M111.321 56.8534L114.956 63L118.583 56.8534L114.956 50.5851L111.321 56.8534Z" fill="white" fill-opacity="0.1"/>
<path d="M135.095 28.4678L119.87 54.6191L108.93 35.8837L115.123 35.8837L119.862 44.0995L125.915 33.7537L124.793 33.7537L127.894 28.4678L135.095 28.4678Z" fill="white" fill-opacity="0.1"/>
<path d="M110.068 54.6191L113.677 48.4029L110.603 43.1518L110.051 44.0386L104.068 33.7277L113.502 33.7277L116.542 28.4852L94.8441 28.4852L110.068 54.6191Z" fill="white" fill-opacity="0.1"/>
<path d="M116.27 33.4408L119.319 38.6919L130.207 20L99.7144 20L103.385 26.2596L109.481 26.2596L108.93 25.2859L121 25.2859L116.27 33.4408Z" fill="white" fill-opacity="0.1"/>
<path d="M93.6177 26.2596L100.801 26.2596L97.2355 20.0435L90 20.0435L93.6177 26.2596Z" fill="white" fill-opacity="0.1"/>
<path d="M129.182 26.2596L136.417 26.2596L140 20.0087L132.791 20.0087L129.182 26.2596Z" fill="white" fill-opacity="0.1"/>
</svg>
